<?xml version="1.0" standalone="no"?>
<!DOCTYPE svg PUBLIC "-//W3C//DTD SVG 20010904//EN"
 "http://www.w3.org/TR/2001/REC-SVG-20010904/DTD/svg10.dtd">
<svg version="1.0" xmlns="http://www.w3.org/2000/svg"
 width="100.000000pt" height="100.000000pt" viewBox="0 0 100.000000 100.000000"
 preserveAspectRatio="xMidYMid meet">
<metadata>
Created by potrace 1.14, written by Peter Selinger 2001-2017
</metadata>
<g transform="translate(0.000000,100.000000) scale(0.100000,-0.100000)"
fill="#000000" stroke="none">
<path d="M373 835 c-79 -80 -143 -149 -143 -152 0 -4 39 -47 87 -95 l88 -88
-122 -123 -122 -122 183 -122 183 -121 152 154 152 153 -10 58 c-6 32 -13 78
-16 103 -3 25 -8 57 -10 71 -3 14 -7 43 -10 65 -17 134 -9 120 -134 247 -64
64 -120 117 -126 117 -5 0 -74 -66 -152 -145z"/>
</g>
</svg>
